<svg width="28" height="28" viewBox="0 0 28 28" fill="none" xmlns="http://www.w3.org/2000/svg">
<path fill-rule="evenodd" clip-rule="evenodd" d="M28 14C28 21.732 21.732 28 14 28C6.26801 28 0 21.732 0 14C0 6.26801 6.26801 0 14 0C21.732 0 28 6.26801 28 14ZM14 22.7778C13.4477 22.7778 13 22.3301 13 21.7778V15H6.22222C5.66994 15 5.22222 14.5523 5.22222 14C5.22222 13.4477 5.66994 13 6.22222 13H13V6.22222C13 5.66994 13.4477 5.22222 14 5.22222C14.5523 5.22222 15 5.66994 15 6.22222V13H21.7778C22.3301 13 22.7778 13.4477 22.7778 14C22.7778 14.5523 22.3301 15 21.7778 15H15V21.7778C15 22.3301 14.5523 22.7778 14 22.7778Z" fill="#7D7D7D"/>
</svg>
