<svg width="32" height="32" viewBox="0 0 32 32" fill="none" xmlns="http://www.w3.org/2000/svg">
<path d="M23.0352 16L26.4813 12.5527C26.9565 12.0938 27.3354 11.5449 27.5961 10.9379C27.8568 10.331 27.9941 9.67827 27.9998 9.01776C28.0056 8.35724 27.8797 7.7022 27.6296 7.09085C27.3794 6.47949 27.0101 5.92408 26.543 5.45701C26.0759 4.98993 25.5205 4.62056 24.9092 4.37044C24.2978 4.12031 23.6428 3.99445 22.9822 4.00019C22.3217 4.00593 21.669 4.14316 21.0621 4.40387C20.4551 4.66458 19.9062 5.04355 19.4473 5.51867L16 8.96477L12.5527 5.51867C12.0938 5.04355 11.5449 4.66458 10.9379 4.40387C10.331 4.14316 9.67827 4.00593 9.01776 4.00019C8.35724 3.99445 7.7022 4.12031 7.09085 4.37044C6.47949 4.62056 5.92408 4.98993 5.45701 5.45701C4.98993 5.92408 4.62056 6.47949 4.37044 7.09085C4.12031 7.7022 3.99445 8.35724 4.00019 9.01776C4.00593 9.67827 4.14316 10.331 4.40387 10.9379C4.66458 11.5449 5.04355 12.0938 5.51867 12.5527L8.96477 16L5.51867 19.4473C5.04355 19.9062 4.66458 20.4551 4.40387 21.0621C4.14316 21.669 4.00593 22.3217 4.00019 22.9822C3.99445 23.6428 4.12031 24.2978 4.37044 24.9092C4.62056 25.5205 4.98993 26.0759 5.45701 26.543C5.92408 27.0101 6.47949 27.3794 7.09085 27.6296C7.7022 27.8797 8.35724 28.0056 9.01776 27.9998C9.67827 27.9941 10.331 27.8568 10.9379 27.5961C11.5449 27.3354 12.0938 26.9565 12.5527 26.4813L16 23.0352L19.4473 26.4813C19.9062 26.9565 20.4551 27.3354 21.0621 27.5961C21.669 27.8568 22.3217 27.9941 22.9822 27.9998C23.6428 28.0056 24.2978 27.8797 24.9092 27.6296C25.5205 27.3794 26.0759 27.0101 26.543 26.543C27.0101 26.0759 27.3794 25.5205 27.6296 24.9092C27.8797 24.2978 28.0056 23.6428 27.9998 22.9822C27.9941 22.3217 27.8568 21.669 27.5961 21.0621C27.3354 20.4551 26.9565 19.9062 26.4813 19.4473L23.0352 16ZM20.8502 6.92148C21.1278 6.64385 21.4574 6.42361 21.8202 6.27336C22.1829 6.1231 22.5717 6.04576 22.9643 6.04576C23.357 6.04576 23.7458 6.1231 24.1085 6.27336C24.4713 6.42361 24.8009 6.64385 25.0785 6.92148C25.3562 7.19912 25.5764 7.52872 25.7266 7.89147C25.8769 8.25423 25.9542 8.64302 25.9542 9.03566C25.9542 9.4283 25.8769 9.81709 25.7266 10.1798C25.5764 10.5426 25.3562 10.8722 25.0785 11.1498L21.6312 14.5972L17.4065 10.3726L20.8502 6.92148ZM20.2172 16L16 20.2209L11.7791 16L16 11.7791L20.2172 16ZM6.92148 11.1498C6.64385 10.8722 6.42361 10.5426 6.27336 10.1798C6.1231 9.81709 6.04576 9.4283 6.04576 9.03566C6.04576 8.64302 6.1231 8.25423 6.27336 7.89147C6.42361 7.52872 6.64385 7.19912 6.92148 6.92148C7.19912 6.64385 7.52872 6.42361 7.89147 6.27336C8.25423 6.1231 8.64302 6.04576 9.03566 6.04576C9.4283 6.04576 9.81709 6.1231 10.1798 6.27336C10.5426 6.42361 10.8722 6.64385 11.1498 6.92148L14.5972 10.3688L10.3726 14.5935L6.92148 11.1498ZM11.1498 25.0785C10.8722 25.3562 10.5426 25.5764 10.1798 25.7266C9.81709 25.8769 9.4283 25.9542 9.03566 25.9542C8.64302 25.9542 8.25423 25.8769 7.89147 25.7266C7.52872 25.5764 7.19912 25.3562 6.92148 25.0785C6.64385 24.8009 6.42361 24.4713 6.27336 24.1085C6.1231 23.7458 6.04576 23.357 6.04576 22.9643C6.04576 22.5717 6.1231 22.1829 6.27336 21.8202C6.42361 21.4574 6.64385 21.1278 6.92148 20.8502L10.3688 17.4028L14.5897 21.6237L11.1498 25.0785ZM25.0785 25.0785C24.8012 25.3568 24.4717 25.5776 24.1089 25.7282C23.7461 25.8788 23.3572 25.9564 22.9643 25.9564C22.5715 25.9564 22.1825 25.8788 21.8197 25.7282C21.4569 25.5776 21.1275 25.3568 20.8502 25.0785L17.4028 21.6312L21.6237 17.4103L25.0785 20.8502C25.3568 21.1275 25.5776 21.4569 25.7282 21.8197C25.8788 22.1825 25.9564 22.5715 25.9564 22.9643C25.9564 23.3572 25.8788 23.7461 25.7282 24.1089C25.5776 24.4717 25.3568 24.8012 25.0785 25.0785ZM14.5076 16C14.5076 15.7048 14.5952 15.4163 14.7591 15.1709C14.9231 14.9255 15.1562 14.7342 15.4289 14.6212C15.7016 14.5083 16.0017 14.4787 16.2911 14.5363C16.5806 14.5939 16.8465 14.736 17.0553 14.9447C17.264 15.1535 17.4061 15.4194 17.4637 15.7089C17.5213 15.9983 17.4917 16.2984 17.3788 16.5711C17.2658 16.8438 17.0745 17.0769 16.8291 17.2409C16.5837 17.4048 16.2952 17.4924 16 17.4924C15.6042 17.4924 15.2246 17.3351 14.9447 17.0553C14.6649 16.7754 14.5076 16.3958 14.5076 16Z" fill="#AFB3BB"/>
</svg>
