<svg width="32" height="32" viewBox="0 0 32 32" fill="none" xmlns="http://www.w3.org/2000/svg">
<path d="M22 13.0097C22 13.2748 21.8946 13.5291 21.7071 13.7166C21.5196 13.9041 21.2652 14.0094 21 14.0094H11C10.7348 14.0094 10.4804 13.9041 10.2929 13.7166C10.1054 13.5291 10 13.2748 10 13.0097C10 12.7445 10.1054 12.4903 10.2929 12.3028C10.4804 12.1153 10.7348 12.01 11 12.01H21C21.2652 12.01 21.5196 12.1153 21.7071 12.3028C21.8946 12.4903 22 12.7445 22 13.0097ZM21 16.0089H11C10.7348 16.0089 10.4804 16.1142 10.2929 16.3017C10.1054 16.4892 10 16.7434 10 17.0086C10 17.2737 10.1054 17.528 10.2929 17.7155C10.4804 17.903 10.7348 18.0083 11 18.0083H21C21.2652 18.0083 21.5196 17.903 21.7071 17.7155C21.8946 17.528 22 17.2737 22 17.0086C22 16.7434 21.8946 16.4892 21.7071 16.3017C21.5196 16.1142 21.2652 16.0089 21 16.0089ZM32 13.0097V16.0089C32 17.0694 31.5786 18.0866 30.8284 18.8365C30.0783 19.5865 29.0609 20.0078 28 20.0078H27.3512C26.4525 21.9822 24.6275 23.6855 21.9475 25.0264C20.1163 25.9243 18.1776 26.584 16.1787 26.9896C16.0606 27.0113 15.9394 27.0113 15.8212 26.9896C13.8224 26.584 11.8837 25.9243 10.0525 25.0264C7.375 23.6855 5.5475 21.9822 4.64875 20.0078H4C2.93913 20.0078 1.92172 19.5865 1.17157 18.8365C0.421427 18.0866 0 17.0694 0 16.0089V13.0097C0 11.9491 0.421427 10.932 1.17157 10.182C1.92172 9.43209 2.93913 9.01077 4 9.01077H4.10625C4.20078 8.72482 4.3587 8.46391 4.56822 8.24753C4.77774 8.03114 5.03345 7.86486 5.31625 7.76111L15.3162 4.12586C15.758 3.96586 16.242 3.96586 16.6838 4.12586L26.6838 7.76111C26.9666 7.86486 27.2223 8.03114 27.4318 8.24753C27.6413 8.46391 27.7992 8.72482 27.8937 9.01077H28C29.0609 9.01077 30.0783 9.43209 30.8284 10.182C31.5786 10.932 32 11.9491 32 13.0097ZM4.06875 18.0083C4.02308 17.677 4.00011 17.343 4 17.0086V11.0102C3.46957 11.0102 2.96086 11.2209 2.58579 11.5959C2.21071 11.9708 2 12.4794 2 13.0097V16.0089C2 16.5392 2.21071 17.0477 2.58579 17.4227C2.96086 17.7977 3.46957 18.0083 4 18.0083H4.06875ZM26 17.0086V9.64685L16 6.01159L6 9.64685V17.0086C6 22.6321 14.6362 24.6965 16 24.9864C17.3612 24.6965 26 22.6321 26 17.0086ZM30 13.0097C30 12.4794 29.7893 11.9708 29.4142 11.5959C29.0391 11.2209 28.5304 11.0102 28 11.0102V17.0086C27.9999 17.343 27.9769 17.677 27.9312 18.0083H28C28.5304 18.0083 29.0391 17.7977 29.4142 17.4227C29.7893 17.0477 30 16.5392 30 16.0089V13.0097Z" fill="#AFB3BB"/>
</svg>
