<svg width="32" height="32" viewBox="0 0 32 32" fill="none" xmlns="http://www.w3.org/2000/svg">
<path d="M23.6629 22.0465C23.8775 22.2611 23.9981 22.5521 23.9981 22.8556C23.9981 23.1591 23.8775 23.4502 23.6629 23.6648C23.4483 23.8794 23.1572 24 22.8537 24C22.5502 24 22.2591 23.8794 22.0444 23.6648L16 17.6188L9.95365 23.6629C9.73903 23.8775 9.44794 23.9981 9.14442 23.9981C8.8409 23.9981 8.54981 23.8775 8.33519 23.6629C8.12057 23.4483 8 23.1572 8 22.8537C8 22.5502 8.12057 22.2592 8.33519 22.0446L14.3815 16.0005L8.3371 9.95448C8.12248 9.73987 8.0019 9.4488 8.0019 9.1453C8.0019 8.8418 8.12248 8.55073 8.3371 8.33612C8.55172 8.12152 8.8428 8.00095 9.14632 8.00095C9.44984 8.00095 9.74093 8.12152 9.95555 8.33612L16 14.3821L22.0464 8.33517C22.261 8.12057 22.5521 8 22.8556 8C23.1591 8 23.4502 8.12057 23.6648 8.33517C23.8794 8.54978 24 8.84085 24 9.14435C24 9.44785 23.8794 9.73892 23.6648 9.95353L17.6185 16.0005L23.6629 22.0465Z" fill="white"/>
</svg>
