<svg width="32" height="32" viewBox="0 0 32 32" fill="none" xmlns="http://www.w3.org/2000/svg">
<path d="M14 19L14 16" stroke="#D11111" stroke-width="2" stroke-linecap="round"/>
<path d="M18 19L18 16" stroke="#D11111" stroke-width="2" stroke-linecap="round"/>
<path d="M7 11H25V11C24.0681 11 23.6022 11 23.2346 11.1522C22.7446 11.3552 22.3552 11.7446 22.1522 12.2346C22 12.6022 22 13.0681 22 14V20C22 21.8856 22 22.8284 21.4142 23.4142C20.8284 24 19.8856 24 18 24H14C12.1144 24 11.1716 24 10.5858 23.4142C10 22.8284 10 21.8856 10 20V14C10 13.0681 10 12.6022 9.84776 12.2346C9.64477 11.7446 9.25542 11.3552 8.76537 11.1522C8.39782 11 7.93188 11 7 11V11Z" stroke="#D11111" stroke-width="2" stroke-linecap="round"/>
<path d="M14.0681 7.37059C14.1821 7.26427 14.4332 7.17033 14.7825 7.10332C15.1318 7.03632 15.5597 7 16 7C16.4403 7 16.8682 7.03632 17.2175 7.10332C17.5668 7.17033 17.8179 7.26427 17.9318 7.37059" stroke="#D11111" stroke-width="2" stroke-linecap="round"/>
</svg>
