<svg width="32" height="32" viewBox="0 0 32 32" fill="none" xmlns="http://www.w3.org/2000/svg">
<path d="M14.9507 21.3524L14.2679 20.6696L14.9507 21.3524L21.8114 14.4916C21.8242 14.4788 21.8371 14.466 21.8499 14.4532C22.1498 14.1534 22.4413 13.862 22.6493 13.5893C22.8839 13.2819 23.1043 12.884 23.1043 12.3703C23.1043 11.8567 22.8839 11.4587 22.6493 11.1513C22.4413 10.8786 22.1498 10.5873 21.8499 10.2875C21.8371 10.2747 21.8242 10.2618 21.8114 10.249L21.7509 10.1885C21.7381 10.1757 21.7253 10.1629 21.7125 10.1501C21.4127 9.85014 21.1213 9.55867 20.8486 9.35063C20.5413 9.1161 20.1433 8.89566 19.6296 8.89566C19.116 8.89566 18.718 9.1161 18.4106 9.35063C18.1379 9.55867 17.8466 9.85014 17.5468 10.1501C17.534 10.1629 17.5212 10.1757 17.5083 10.1885L10.6476 17.0493C10.6345 17.0623 10.621 17.0757 10.6072 17.0895C10.455 17.2407 10.2624 17.4322 10.1255 17.6739C9.98864 17.9157 9.92357 18.1794 9.87217 18.3877C9.8675 18.4066 9.86295 18.425 9.85846 18.443L9.23197 20.9489C9.22917 20.9601 9.22625 20.9718 9.22323 20.9838C9.18641 21.1303 9.13541 21.3332 9.11784 21.5128C9.09762 21.7195 9.09093 22.1714 9.45971 22.5402C9.82849 22.909 10.2804 22.9023 10.4871 22.8821C10.6667 22.8645 10.8697 22.8135 11.0161 22.7767C11.0281 22.7737 11.0398 22.7708 11.051 22.7679L10.8112 21.8087L11.051 22.7679L13.557 22.1415C13.5749 22.137 13.5934 22.1324 13.6123 22.1278C13.8206 22.0763 14.0842 22.0113 14.326 21.8744C14.5678 21.7375 14.7592 21.5449 14.9105 21.3927C14.9242 21.3789 14.9376 21.3654 14.9507 21.3524Z" stroke="#AFB3BB" stroke-width="2"/>
<path d="M17.2222 10.9259L20.1111 9L23 11.8889L21.0741 14.7778L17.2222 10.9259Z" fill="#AFB3BB" stroke="#AFB3BB" stroke-width="2"/>
</svg>
