<svg width="18" height="18" viewBox="0 0 18 18" fill="none" xmlns="http://www.w3.org/2000/svg">
<path d="M1.99233 18C1.95384 15.2056 1.47379 12.5476 0 10.1848C2.20338 10.8512 4.28331 12.7897 4.7554 16.4394C4.53285 12.3256 3.62495 8.38932 2.14984 4.57164C2.43389 4.77975 2.72679 4.97446 3.00022 5.1974C4.18951 6.16617 5.07175 7.41146 5.74471 8.83471C6.56323 10.5661 7.0601 12.4108 7.33353 14.3258C7.45742 15.1922 7.53175 16.0663 7.64059 16.9413C7.64059 16.6533 7.6313 16.3643 7.64191 16.0768C7.74102 13.4154 8.09808 10.7962 8.79714 8.23957C9.40329 6.02264 10.2585 3.93106 11.5558 2.07389C12.0788 1.32518 12.6619 0.636757 13.3548 0C11.589 5.20936 10.6917 10.5594 10.4886 16.0529C10.5974 14.8564 10.778 13.6714 11.0501 12.5046C11.5217 10.4823 12.231 8.57542 13.4304 6.91535C14.0852 6.00877 14.8617 5.24571 15.7816 4.66015C15.821 4.63527 15.8612 4.61278 15.9347 4.56925C15.2029 6.40058 14.6241 8.24866 14.1835 10.1475C13.7419 12.0486 13.4424 13.9737 13.318 15.9295C13.9729 12.2376 16.3231 10.6708 18 10.1848C16.5275 12.5476 16.0466 15.2052 16.0081 18H1.99233Z" fill="#AFB3BB"/>
</svg>
