<svg width="32" height="32" viewBox="0 0 32 32" fill="none" xmlns="http://www.w3.org/2000/svg">
<path d="M12.2442 8.39743C12.1668 8.32142 12.1054 8.23118 12.0635 8.13186C12.0216 8.03254 12 7.9261 12 7.8186C12 7.71109 12.0216 7.60465 12.0635 7.50533C12.1054 7.40602 12.1668 7.31577 12.2442 7.23976C12.3216 7.16375 12.4135 7.10345 12.5147 7.06231C12.6158 7.02117 12.7242 7 12.8337 7C12.9432 7 13.0516 7.02117 13.1527 7.06231C13.2539 7.10345 13.3458 7.16375 13.4232 7.23976L21.7556 15.4212C21.8331 15.4971 21.8946 15.5874 21.9365 15.6867C21.9784 15.786 22 15.8925 22 16C22 16.1075 21.9784 16.214 21.9365 16.3133C21.8946 16.4126 21.8331 16.5029 21.7556 16.5788L13.4232 24.7602C13.2669 24.9138 13.0548 25 12.8337 25C12.6126 25 12.4005 24.9138 12.2442 24.7602C12.0878 24.6067 12 24.3985 12 24.1814C12 23.9643 12.0878 23.7561 12.2442 23.6026L19.9881 16L12.2442 8.39743Z" fill="black"/>
</svg>
