<svg width="32" height="32" viewBox="0 0 32 32" fill="none" xmlns="http://www.w3.org/2000/svg">
<path d="M27.0637 4.87914C25.8605 3.67595 24.2285 3 22.5269 3C20.8252 3 19.1933 3.67595 17.99 4.87914L5.76242 17.1052C4.58434 18.3136 3.92979 19.9374 3.94056 21.625C3.95134 23.3125 4.62657 24.9279 5.81998 26.1211C7.0134 27.3143 8.62889 27.9893 10.3165 27.9999C12.0041 28.0104 13.6279 27.3557 14.8361 26.1775L27.0649 13.9514C28.2662 12.7473 28.9407 11.1158 28.9404 9.41503C28.9402 7.71421 28.2653 6.08294 27.0637 4.87914ZM13.4736 24.815C12.6319 25.6569 11.4902 26.1299 10.2997 26.13C9.1092 26.1301 7.96741 25.6573 7.12552 24.8156C6.28363 23.9739 5.8106 22.8322 5.81048 21.6418C5.81037 20.4513 6.28319 19.3095 7.12492 18.4677L12.5569 13.0359L18.9056 19.3832L13.4736 24.815ZM25.7012 12.5889L20.2669 18.0207L13.9206 11.6734L19.3537 6.24161C20.1988 5.41608 21.3352 4.95699 22.5166 4.96389C23.698 4.97079 24.829 5.44314 25.6644 6.27848C26.4997 7.11382 26.9721 8.2448 26.979 9.42614C26.9859 10.6075 26.5268 11.7439 25.7012 12.5889ZM23.8424 10.0278C23.932 10.1173 24.0031 10.2236 24.0516 10.3406C24.1001 10.4576 24.125 10.583 24.125 10.7097C24.125 10.8363 24.1001 10.9617 24.0516 11.0787C24.0031 11.1957 23.932 11.302 23.8424 11.3915L20.9511 14.2827C20.8616 14.3722 20.7553 14.4431 20.6383 14.4915C20.5214 14.5399 20.396 14.5647 20.2695 14.5647C20.1429 14.5646 20.0176 14.5396 19.9006 14.4912C19.7837 14.4427 19.6775 14.3716 19.588 14.2821C19.4986 14.1925 19.4276 14.0863 19.3792 13.9693C19.3308 13.8523 19.306 13.727 19.306 13.6004C19.3061 13.4739 19.3311 13.3485 19.3796 13.2316C19.428 13.1147 19.4991 13.0085 19.5886 12.919L22.4799 10.0278C22.6606 9.84725 22.9056 9.7458 23.1611 9.7458C23.4166 9.7458 23.6617 9.84725 23.8424 10.0278Z" fill="#AFB3BB"/>
</svg>
