<svg width="26" height="26" viewBox="0 0 26 26" fill="none" xmlns="http://www.w3.org/2000/svg">
<path d="M24.0482 1.95431C22.7968 0.702983 21.0996 0 19.3299 0C17.5602 0 15.863 0.702983 14.6116 1.95431L1.89487 14.6694C0.669663 15.9261 -0.0110702 17.6149 0.000136199 19.37C0.0113426 21.125 0.713586 22.805 1.95474 24.0459C3.19589 25.2869 4.876 25.9889 6.6311 25.9999C8.3862 26.0108 10.075 25.3299 11.3315 24.1046L24.0495 11.3895C25.2988 10.1372 26.0002 8.44048 26 6.67163C25.9998 4.90278 25.2978 3.20626 24.0482 1.95431ZM9.91453 22.6876C9.03913 23.5631 7.85176 24.0551 6.61364 24.0552C5.37552 24.0553 4.18806 23.5636 3.3125 22.6882C2.43693 21.8129 1.94497 20.6255 1.94486 19.3874C1.94474 18.1493 2.43647 16.9619 3.31187 16.0864L8.96109 10.4373L15.5637 17.0385L9.91453 22.6876ZM22.6312 9.9725L16.9795 15.6216L10.3793 9.02034L16.0298 3.37127C16.9087 2.51273 18.0906 2.03527 19.3192 2.04244C20.5478 2.04962 21.7241 2.54086 22.5929 3.40962C23.4617 4.27837 23.9529 5.4546 23.9601 6.68318C23.9673 7.91177 23.4898 9.09365 22.6312 9.9725ZM20.698 7.30896C20.7912 7.40204 20.8652 7.51258 20.9156 7.63425C20.966 7.75593 20.992 7.88635 20.992 8.01807C20.992 8.14978 20.966 8.2802 20.9156 8.40188C20.8652 8.52355 20.7912 8.63409 20.698 8.72718L17.6911 11.734C17.598 11.827 17.4875 11.9008 17.3658 11.9511C17.2442 12.0015 17.1138 12.0273 16.9822 12.0273C16.8505 12.0272 16.7202 12.0012 16.5986 11.9508C16.477 11.9004 16.3665 11.8265 16.2735 11.7334C16.1805 11.6402 16.1067 11.5297 16.0564 11.4081C16.006 11.2864 15.9802 11.1561 15.9802 11.0244C15.9803 10.8928 16.0063 10.7625 16.0567 10.6409C16.1071 10.5193 16.181 10.4088 16.2741 10.3158L19.281 7.30896C19.469 7.12114 19.7238 7.01563 19.9895 7.01563C20.2552 7.01563 20.5101 7.12114 20.698 7.30896Z" fill="#AFB3BB"/>
</svg>
