<svg width="32" height="32" viewBox="0 0 32 32" fill="none" xmlns="http://www.w3.org/2000/svg">
<path d="M29.9983 13.9967C29.9963 12.1406 29.2581 10.3611 27.9457 9.04868C26.6333 7.73623 24.8539 6.99802 22.9979 6.99604C22.7766 6.99604 22.5553 7.00854 22.3366 7.02854C21.7721 5.82378 20.8761 4.80481 19.7534 4.09098C18.6307 3.37716 17.3278 2.99805 15.9974 2.99805C14.6671 2.99805 13.3642 3.37716 12.2415 4.09098C11.1188 4.80481 10.2228 5.82378 9.65831 7.02854C9.43955 7.00854 9.21829 6.99604 8.99702 6.99604C7.4079 6.99642 5.8662 7.53749 4.62535 8.5303C3.3845 9.5231 2.51835 10.9086 2.16928 12.4589C1.82021 14.0093 2.00899 15.6323 2.7046 17.0611C3.40021 18.49 4.56124 19.6396 5.99684 20.3211V25.9979C5.99684 26.5283 6.20757 27.0371 6.58266 27.4122C6.95776 27.7873 7.4665 27.998 7.99696 27.998H23.9979C24.5284 27.998 25.0371 27.7873 25.4122 27.4122C25.7873 27.0371 25.998 26.5283 25.998 25.9979V20.3211C27.194 19.7523 28.2044 18.8564 28.9124 17.7372C29.6203 16.6179 29.9968 15.3211 29.9983 13.9967ZM23.9979 25.9979H7.99696V20.9249C8.32813 20.9731 8.66236 20.9974 8.99702 20.9974H22.9979C23.3325 20.9974 23.6668 20.9731 23.9979 20.9249V25.9979ZM22.9979 18.9972H21.279L21.9678 16.2394C22.027 15.9839 21.9836 15.7154 21.8467 15.4917C21.7098 15.2679 21.4906 15.1069 21.2361 15.0433C20.9817 14.9797 20.7125 15.0186 20.4864 15.1516C20.2604 15.2846 20.0956 15.5011 20.0277 15.7544L19.2164 18.9972H16.9975V15.9969C16.9975 15.7317 16.8921 15.4773 16.7046 15.2897C16.517 15.1022 16.2627 14.9968 15.9974 14.9968C15.7322 14.9968 15.4778 15.1022 15.2903 15.2897C15.1027 15.4773 14.9974 15.7317 14.9974 15.9969V18.9972H12.7785L11.9672 15.7544C11.9372 15.625 11.8818 15.503 11.8041 15.3953C11.7264 15.2876 11.6281 15.1964 11.5148 15.1271C11.4016 15.0578 11.2757 15.0118 11.1444 14.9917C11.0132 14.9716 10.8792 14.9778 10.7504 15.01C10.6216 15.0422 10.5005 15.0998 10.3942 15.1793C10.2878 15.2588 10.1984 15.3587 10.1311 15.4731C10.0637 15.5875 10.0199 15.7142 10.002 15.8458C9.98416 15.9774 9.99268 16.1112 10.0271 16.2394L10.7159 18.9972H8.99702C7.67086 18.9972 6.39902 18.4704 5.46128 17.5326C4.52354 16.5948 3.99672 15.3229 3.99672 13.9967C3.99672 12.6705 4.52354 11.3986 5.46128 10.4608C6.39902 9.52306 7.67086 8.99623 8.99702 8.99623H9.06953C9.02114 9.3274 8.99691 9.66164 8.99702 9.99633C8.99702 10.2616 9.10239 10.5159 9.28993 10.7035C9.47748 10.8911 9.73185 10.9964 9.99708 10.9964C10.2623 10.9964 10.5167 10.8911 10.7042 10.7035C10.8918 10.5159 10.9971 10.2616 10.9971 9.99633C10.9971 8.67012 11.524 7.39823 12.4617 6.46045C13.3994 5.52268 14.6713 4.99585 15.9974 4.99585C17.3236 4.99585 18.5955 5.52268 19.5332 6.46045C20.4709 7.39823 20.9977 8.67012 20.9977 9.99633C20.9977 10.2616 21.1031 10.5159 21.2907 10.7035C21.4782 10.8911 21.7326 10.9964 21.9978 10.9964C22.263 10.9964 22.5174 10.8911 22.705 10.7035C22.8925 10.5159 22.9979 10.2616 22.9979 9.99633C22.998 9.66164 22.9737 9.3274 22.9254 8.99623H22.9979C24.324 8.99623 25.5959 9.52306 26.5336 10.4608C27.4714 11.3986 27.9982 12.6705 27.9982 13.9967C27.9982 15.3229 27.4714 16.5948 26.5336 17.5326C25.5959 18.4704 24.324 18.9972 22.9979 18.9972Z" fill="#AFB3BB"/>
</svg>
