<svg width="19" height="19" viewBox="0 0 19 19" fill="none" xmlns="http://www.w3.org/2000/svg">
<path d="M18.7861 17.7532L14.2173 13.1853C15.5415 11.5955 16.2019 9.55641 16.0609 7.49216C15.92 5.42792 14.9886 3.49747 13.4607 2.1024C11.9327 0.70734 9.92564 -0.0449328 7.85713 0.00207771C5.78861 0.0490882 3.81784 0.891763 2.3548 2.3548C0.891763 3.81784 0.0490882 5.78861 0.00207771 7.85713C-0.0449328 9.92564 0.70734 11.9327 2.1024 13.4607C3.49747 14.9886 5.42792 15.92 7.49216 16.0609C9.55641 16.2019 11.5955 15.5415 13.1853 14.2173L17.7532 18.7861C17.821 18.8539 17.9015 18.9077 17.9901 18.9444C18.0787 18.9811 18.1737 19 18.2696 19C18.3655 19 18.4605 18.9811 18.5491 18.9444C18.6377 18.9077 18.7183 18.8539 18.7861 18.7861C18.8539 18.7183 18.9077 18.6377 18.9444 18.5491C18.9811 18.4605 19 18.3655 19 18.2696C19 18.1737 18.9811 18.0787 18.9444 17.9901C18.9077 17.9015 18.8539 17.821 18.7861 17.7532ZM1.48012 8.04992C1.48012 6.75054 1.86544 5.48034 2.58734 4.39994C3.30923 3.31954 4.3353 2.47747 5.53577 1.98022C6.73625 1.48297 8.05721 1.35286 9.33163 1.60636C10.606 1.85986 11.7767 2.48557 12.6955 3.40437C13.6143 4.32318 14.24 5.4938 14.4935 6.76822C14.747 8.04264 14.6169 9.3636 14.1196 10.5641C13.6224 11.7646 12.7803 12.7906 11.6999 13.5125C10.6195 14.2344 9.34931 14.6197 8.04992 14.6197C6.3081 14.6178 4.63817 13.925 3.40651 12.6933C2.17485 11.4617 1.48206 9.79175 1.48012 8.04992Z" fill="#AFB3BB"/>
</svg>
