<svg width="32" height="32" viewBox="0 0 32 32" fill="none" xmlns="http://www.w3.org/2000/svg">
<path d="M16.5011 10.4626C15.4416 10.4626 14.4059 10.7873 13.525 11.3958C12.6441 12.0042 11.9575 12.8691 11.5521 13.8809C11.1466 14.8927 11.0405 16.006 11.2472 17.0802C11.4539 18.1543 11.9641 19.141 12.7133 19.9154C13.4624 20.6898 14.4169 21.2172 15.456 21.4308C16.4951 21.6445 17.5722 21.5348 18.551 21.1157C19.5298 20.6966 20.3664 19.9869 20.955 19.0763C21.5436 18.1657 21.8578 17.0951 21.8578 15.9999C21.8563 14.5318 21.2915 13.1242 20.2872 12.0861C19.283 11.048 17.9213 10.4641 16.5011 10.4626ZM16.5011 19.6914C15.7947 19.6914 15.1043 19.4749 14.517 19.0693C13.9297 18.6637 13.472 18.0871 13.2017 17.4126C12.9314 16.7381 12.8607 15.9958 12.9985 15.2797C13.1363 14.5636 13.4764 13.9059 13.9759 13.3896C14.4753 12.8733 15.1116 12.5217 15.8044 12.3793C16.4971 12.2369 17.2151 12.31 17.8677 12.5894C18.5202 12.8688 19.078 13.3419 19.4704 13.949C19.8628 14.5561 20.0722 15.2698 20.0722 15.9999C20.0722 16.979 19.696 17.9179 19.0263 18.6102C18.3565 19.3025 17.4482 19.6914 16.5011 19.6914ZM28.7703 13.6016C28.7454 13.4716 28.6938 13.3487 28.6188 13.2412C28.5439 13.1337 28.4475 13.0441 28.3361 12.9786L25.0071 11.0175L24.9938 7.13904C24.9933 7.00547 24.9649 6.87358 24.9104 6.75248C24.8558 6.63139 24.7765 6.52397 24.6779 6.43765C23.4703 5.38175 22.0797 4.57257 20.58 4.05314C20.4619 4.01182 20.3367 3.99653 20.2126 4.00825C20.0884 4.01997 19.968 4.05845 19.8591 4.1212L16.5011 6.06157L13.1397 4.11774C13.0307 4.05463 12.9101 4.01587 12.7858 4.00394C12.6614 3.99202 12.536 4.00721 12.4176 4.04853C10.919 4.57175 9.53001 5.38402 8.32419 6.44226C8.22572 6.52846 8.1465 6.63569 8.09198 6.75657C8.03746 6.87746 8.00893 7.00913 8.00836 7.1425L7.99162 11.0244L4.66262 12.9855C4.55125 13.0511 4.45483 13.1406 4.37992 13.2481C4.30501 13.3556 4.25337 13.4785 4.2285 13.6085C3.92383 15.1911 3.92383 16.8203 4.2285 18.4029C4.25337 18.5328 4.30501 18.6557 4.37992 18.7632C4.45483 18.8707 4.55125 18.9603 4.66262 19.0258L7.99162 20.9869L8.00502 24.8654C8.00542 24.999 8.03387 25.1308 8.0884 25.2519C8.14293 25.373 8.22223 25.4805 8.32084 25.5668C9.52842 26.6227 10.919 27.4319 12.4188 27.9513C12.5369 27.9926 12.662 28.0079 12.7862 27.9962C12.9104 27.9845 13.0308 27.946 13.1397 27.8832L16.5011 25.9382L19.8624 27.8821C19.9954 27.9587 20.1454 27.9984 20.2977 27.9974C20.3952 27.9974 20.492 27.981 20.5845 27.949C22.0829 27.4264 23.4719 26.615 24.6779 25.5575C24.7764 25.4714 24.8556 25.3641 24.9101 25.2432C24.9647 25.1223 24.9932 24.9907 24.9938 24.8573L25.0105 20.9754L28.3395 19.0143C28.4509 18.9487 28.5473 18.8592 28.6222 18.7517C28.6971 18.6442 28.7487 18.5213 28.7736 18.3913C29.0766 16.81 29.0754 15.1824 28.7703 13.6016ZM27.0963 17.6288L23.9079 19.5034C23.7682 19.5855 23.6525 19.7051 23.5731 19.8495C23.5084 19.9649 23.4403 20.0871 23.3711 20.2025C23.2825 20.348 23.2353 20.5163 23.2349 20.6882L23.2182 24.4086C22.3612 25.1042 21.4064 25.6605 20.3869 26.0582L17.1707 24.2055C17.0371 24.1291 16.8869 24.0894 16.7343 24.0902H16.7131C16.5781 24.0902 16.4419 24.0902 16.3069 24.0902C16.1472 24.086 15.9893 24.1258 15.8493 24.2055L12.6308 26.0628C11.6091 25.6682 10.6517 25.1146 9.79172 24.4212L9.77944 20.7066C9.77889 20.5344 9.73173 20.3658 9.64329 20.2198C9.5741 20.1044 9.50602 19.9891 9.44241 19.8668C9.36354 19.7202 9.24788 19.5982 9.10762 19.5138L5.91588 17.6346C5.75071 16.5546 5.75071 15.4545 5.91588 14.3745L9.09869 12.4964C9.23838 12.4143 9.35405 12.2947 9.43349 12.1503C9.49821 12.035 9.56629 11.9127 9.63548 11.7973C9.72405 11.6518 9.77123 11.4835 9.77163 11.3116L9.78837 7.59126C10.6454 6.89557 11.6001 6.33927 12.6196 5.9416L15.8315 7.79429C15.9712 7.87438 16.1293 7.91422 16.289 7.90965C16.4241 7.90965 16.5602 7.90965 16.6952 7.90965C16.855 7.91378 17.0129 7.87396 17.1528 7.79429L20.3713 5.93698C21.393 6.3316 22.3504 6.88518 23.2104 7.57857L23.2227 11.2932C23.2232 11.4654 23.2704 11.634 23.3588 11.78C23.428 11.8954 23.4961 12.0107 23.5597 12.133C23.6386 12.2796 23.7542 12.4016 23.8945 12.486L27.0862 14.3652C27.2536 15.4461 27.2555 16.5474 27.0918 17.6288H27.0963Z" fill="#AFB3BB"/>
</svg>
