<svg width="26" height="26" viewBox="0 0 26 26" fill="none" xmlns="http://www.w3.org/2000/svg">
<path d="M25.7279 5.84332L20.1567 0.272113C20.0704 0.185842 19.968 0.117409 19.8553 0.0707197C19.7426 0.0240305 19.6217 0 19.4997 0C19.3777 0 19.2569 0.0240305 19.1442 0.0707197C19.0315 0.117409 18.9291 0.185842 18.8428 0.272113C18.7565 0.358383 18.6881 0.460801 18.6414 0.573519C18.5947 0.686236 18.5707 0.807046 18.5707 0.929051C18.5707 1.05106 18.5947 1.17187 18.6414 1.28458C18.6881 1.3973 18.7565 1.49972 18.8428 1.58599L20.9726 3.71465L17.6427 7.04461L13.6569 3.05772C13.4827 2.88349 13.2464 2.7856 13 2.7856C12.7536 2.7856 12.5173 2.88349 12.3431 3.05772C12.1688 3.23195 12.0709 3.46825 12.0709 3.71465C12.0709 3.96105 12.1688 4.19736 12.3431 4.37159L13.0801 5.10746L3.33047 14.8571C3.15728 15.0289 3.01996 15.2334 2.92651 15.4588C2.83306 15.6841 2.78534 15.9258 2.78612 16.1698V21.9012L0.272113 24.414C0.185842 24.5003 0.117409 24.6027 0.0707197 24.7154C0.0240305 24.8281 0 24.9489 0 25.0709C0 25.193 0.0240305 25.3138 0.0707197 25.4265C0.117409 25.5392 0.185842 25.6416 0.272113 25.7279C0.446344 25.9021 0.682651 26 0.929051 26C1.05106 26 1.17187 25.976 1.28458 25.9293C1.3973 25.8826 1.49972 25.8142 1.58599 25.7279L4.09884 23.2139H9.83021C10.0742 23.2147 10.3159 23.1669 10.5412 23.0735C10.7666 22.98 10.9711 22.8427 11.1429 22.6695L20.8925 12.9199L21.6284 13.6569C21.7147 13.7432 21.8171 13.8116 21.9298 13.8583C22.0425 13.905 22.1633 13.9291 22.2853 13.9291C22.4074 13.9291 22.5282 13.905 22.6409 13.8583C22.7536 13.8116 22.856 13.7432 22.9423 13.6569C23.0286 13.5707 23.097 13.4682 23.1437 13.3555C23.1904 13.2428 23.2144 13.122 23.2144 13C23.2144 12.878 23.1904 12.7572 23.1437 12.6445C23.097 12.5317 23.0286 12.4293 22.9423 12.3431L18.9554 8.35733L22.2853 5.02737L24.414 7.1572C24.5882 7.33143 24.8245 7.42931 25.0709 7.42931C25.3173 7.42931 25.5537 7.33143 25.7279 7.1572C25.9021 6.98297 26 6.74666 26 6.50026C26 6.25386 25.9021 6.01755 25.7279 5.84332ZM9.83021 21.3568H4.64319V16.1698L6.73239 14.0806L9.09319 16.4425C9.17946 16.5288 9.28188 16.5972 9.3946 16.6439C9.50731 16.6906 9.62812 16.7147 9.75013 16.7147C9.87213 16.7147 9.99294 16.6906 10.1057 16.6439C10.2184 16.5972 10.3208 16.5288 10.4071 16.4425C10.4933 16.3563 10.5618 16.2539 10.6085 16.1411C10.6551 16.0284 10.6792 15.9076 10.6792 15.7856C10.6792 15.6636 10.6551 15.5428 10.6085 15.4301C10.5618 15.3174 10.4933 15.2149 10.4071 15.1287L8.04511 12.7679L9.51799 11.295L11.8788 13.6569C12.053 13.8312 12.2893 13.9291 12.5357 13.9291C12.7821 13.9291 13.0184 13.8312 13.1927 13.6569C13.3669 13.4827 13.4648 13.2464 13.4648 13C13.4648 12.7536 13.3669 12.5173 13.1927 12.3431L10.8307 9.98226L14.3928 6.42017L19.5798 11.6072L9.83021 21.3568Z" fill="#AFB3BB"/>
</svg>
