<svg width="28" height="28" viewBox="0 0 28 28" fill="none" xmlns="http://www.w3.org/2000/svg">
<path d="M0 10.4936C0 10.1106 0 9.72759 0 9.34459C0.0150616 9.26511 0.0369694 9.18632 0.0438155 9.10547C0.180739 7.35832 0.74281 5.75232 1.75604 4.33131C3.61341 1.72703 6.1376 0.253264 9.34777 0.0257923C11.5611 -0.131108 13.6027 0.428664 15.421 1.6825C17.7576 3.29398 19.1926 5.51457 19.6581 8.3333C19.9368 10.0215 19.7834 11.6769 19.1919 13.2822C18.9954 13.8159 18.7448 14.3298 18.5141 14.8649C18.6024 14.8704 18.6907 14.8772 18.7791 14.8806C19.9641 14.9265 21.1403 15.0465 22.298 15.3116C23.8637 15.6706 25.3617 16.1886 26.6227 17.2314C27.51 17.9652 28.0282 18.8792 27.9988 20.0714C27.9748 21.0279 28.0009 21.9857 27.9899 22.9429C27.9865 23.2135 27.9577 23.4903 27.8941 23.7527C27.6469 24.7613 26.9691 25.4519 26.1428 26.0062C24.5004 27.1086 22.6362 27.5738 20.7076 27.8335C20.2038 27.9013 19.6971 27.9452 19.1919 28H17.1141C16.9984 27.9822 16.8827 27.9651 16.767 27.9472C15.6894 27.7821 14.6002 27.6732 13.5383 27.4382C12.1075 27.1209 10.7588 26.5721 9.61409 25.6184C8.73777 24.8887 8.2202 23.9836 8.25238 22.8024C8.27566 21.9377 8.25717 21.0717 8.25717 20.2057V19.6603C8.17844 19.6432 8.12641 19.6301 8.07438 19.6199C6.16909 19.2437 4.50547 18.3921 3.09995 17.0519C1.72387 15.7391 0.777726 14.164 0.322455 12.3134C0.174578 11.7166 0.104747 11.1013 0 10.4936ZM15.0849 3.47212C11.785 0.74452 6.71405 0.98501 3.61136 4.63072C0.683248 8.07089 1.32884 12.5847 3.50661 15.0574C7.36101 11.2007 11.2168 7.34257 15.0849 3.47212ZM4.71222 16.3085C5.87881 17.2465 7.21039 17.8487 8.71587 18.055C8.78296 18.0639 8.88634 18.0036 8.93289 17.9447C9.47442 17.2568 10.1686 16.7641 10.9402 16.375C12.5641 15.5562 14.3078 15.1718 16.1022 14.9848C16.335 14.9608 16.5 14.8991 16.6383 14.6881C18.5169 11.8146 18.6599 8.85676 17.0744 5.81947C16.8628 5.41385 16.5732 5.04867 16.3322 4.68279C12.4402 8.57722 8.58374 12.436 4.71291 16.3092L4.71222 16.3085ZM20.9445 22.9148C20.9486 22.8819 20.9534 22.849 20.9575 22.8161C20.8863 22.7627 20.8165 22.7072 20.7439 22.6551C18.3731 20.9593 15.9954 19.2732 13.6369 17.5596C13.2864 17.3047 13.0077 17.2499 12.6086 17.4239C11.8453 17.7562 11.0949 18.0961 10.4801 18.6764C9.73321 19.3814 9.70582 20.1008 10.4117 20.8401C10.9717 21.4266 11.6775 21.787 12.4176 22.0803C14.2907 22.8216 16.2501 23.0888 18.2499 23.0689C19.1481 23.06 20.0456 22.9689 20.9438 22.9148H20.9445ZM15.3115 16.7086C15.3697 16.7792 15.3827 16.8039 15.4025 16.8183C17.9431 18.6346 20.4838 20.4516 23.0278 22.2632C23.0894 22.307 23.2031 22.3276 23.2729 22.3036C24.1205 22.0111 24.9317 21.6445 25.6232 21.0601C26.583 20.2495 26.5864 19.3766 25.6451 18.5503C24.9974 17.9817 24.2348 17.6199 23.4324 17.3383C21.4539 16.6435 19.4055 16.4496 17.3249 16.5326C16.6663 16.5586 16.0105 16.6456 15.3108 16.7086H15.3115ZM9.92148 22.6441C9.83385 23.1971 9.95092 23.6225 10.3247 24.0295C11.0586 24.8277 12.0123 25.2649 13.016 25.5793C16.2549 26.5954 19.5205 26.6228 22.7902 25.7383C23.8404 25.454 24.8386 25.0326 25.6718 24.296C26.1716 23.8541 26.4509 23.3266 26.3297 22.6147C26.279 22.6421 26.24 22.6599 26.2044 22.6839C24.5805 23.7829 22.7423 24.2755 20.835 24.5393C19.233 24.7613 17.6207 24.7743 16.0098 24.6016C14.455 24.4351 12.9352 24.1172 11.5043 23.4663C10.9621 23.2197 10.4445 22.9182 9.92148 22.6441Z" fill="#AFB3BB"/>
</svg>
