<svg width="18" height="18" viewBox="0 0 18 18" fill="none" xmlns="http://www.w3.org/2000/svg">
<path d="M11.9695 0.000351533C12.0968 0.026365 12.2255 0.0464024 12.3504 0.0794464C13.4649 0.374383 14.1853 1.03878 14.4848 2.09127C14.5137 2.19251 14.5482 2.24243 14.6731 2.26036C16.1122 2.46706 17.1403 3.5656 17.1681 4.92673C17.1756 5.29795 17.108 5.66249 16.9411 6.00313C16.8915 6.10402 16.9077 6.16448 16.9895 6.24463C18.3437 7.57518 18.3373 9.56838 16.9685 10.8785C16.7782 11.0606 16.5369 11.1956 16.3264 11.3601C16.2713 11.4034 16.215 11.4723 16.2045 11.5359C15.9474 13.115 14.9294 14.0634 13.344 14.5004C12.1335 14.834 10.9012 14.8203 9.67347 14.5475C9.6442 14.5408 9.61681 14.5264 9.63069 14.5317C9.81419 14.0982 9.99242 13.6711 10.1778 13.2465C10.2022 13.1906 10.2573 13.1431 10.3076 13.1013C11.314 12.2625 11.7966 11.2121 11.7414 9.95295C11.7121 9.27836 11.4855 8.65615 11.0934 8.08983C11.0251 7.99105 10.9996 7.90316 11.0202 7.78153C11.2915 6.17679 10.3767 4.68066 8.7654 4.07532C8.70536 4.05282 8.63031 4.01837 8.6048 3.96986C8.3335 3.4503 7.94888 3.01967 7.44531 2.6611C7.8213 2.42769 8.21718 2.30078 8.64232 2.25473C8.75301 2.24278 8.79579 2.20798 8.82694 2.10392C9.17516 0.935781 9.98304 0.236582 11.2652 0.0284742C11.2881 0.0246073 11.3091 0.00984292 11.3309 0C11.5437 0 11.7564 0 11.9688 0L11.9695 0.000351533Z" fill="#AFB3BB"/>
<path d="M11.4815 17.9985C11.1558 17.859 11.0499 17.6188 11.0631 17.2912C11.0826 16.8004 11.068 16.3082 11.068 15.7949H12.1942V16.2709C12.1942 16.6106 12.1795 16.9509 12.1983 17.2894C12.2167 17.616 12.1052 17.8572 11.7817 17.9985H11.4815Z" fill="#AFB3BB"/>
<path d="M5.10182 17.9997C4.77533 17.8749 4.65525 17.644 4.67251 17.3209C4.68865 17.0182 4.67589 16.7137 4.67589 16.3906H5.77769C5.77769 16.7921 5.79495 17.1996 5.77056 17.6046C5.7578 17.8159 5.5559 17.9178 5.36414 18.0001H5.10145L5.10182 17.9997Z" fill="#AFB3BB"/>
<path d="M5.81142 15.2948C5.80767 15.2259 5.80204 15.1689 5.80204 15.112C5.80129 14.4149 5.80467 13.7174 5.79867 13.0203C5.79754 12.898 5.83919 12.814 5.93075 12.73C6.34576 12.3486 6.75927 11.965 7.16453 11.5738C7.49962 11.2504 7.35628 10.7632 6.90486 10.6675C6.69736 10.6236 6.52137 10.6893 6.37578 10.8261C6.19979 10.9913 6.02944 11.1614 5.85645 11.3291C5.84107 11.3235 5.82568 11.3179 5.8103 11.3122C5.8073 11.2528 5.80167 11.1931 5.80167 11.1337C5.80054 10.7586 5.80992 10.3835 5.79791 10.0088C5.78478 9.59747 5.40654 9.34894 5.02793 9.49342C4.8268 9.57005 4.70748 9.71277 4.68384 9.91736C4.6752 9.99294 4.67596 10.0696 4.67558 10.1455C4.6752 11.7917 4.67558 13.438 4.67558 15.0842C4.67558 15.1534 4.67558 15.2227 4.67558 15.3268C4.41179 15.2905 4.16601 15.2688 3.92586 15.222C3.1251 15.0659 2.42528 14.7474 1.93522 14.1038C1.62528 13.6967 1.46392 13.2411 1.44254 12.7444C1.43691 12.6147 1.39225 12.5356 1.27631 12.4597C-0.205506 11.4929 -0.434026 9.54087 0.785495 8.28625C0.862794 8.2068 0.877804 8.14564 0.836152 8.04088C0.300314 6.69029 1.18137 5.22194 2.6917 4.95337C2.85493 4.92419 2.92772 4.86654 2.97613 4.71679C3.28795 3.74761 4.26169 3.08216 5.34163 3.08497C6.42831 3.08813 7.38517 3.75077 7.69999 4.72522C7.74052 4.85107 7.78855 4.92841 7.94915 4.95618C9.42458 5.2135 10.3176 6.68537 9.80132 8.00432C9.75217 8.12982 9.76042 8.20891 9.86248 8.31191C11.0587 9.51802 10.8092 11.5323 9.35179 12.4593C9.22721 12.5384 9.15066 12.6221 9.12289 12.7715C8.93002 13.8127 8.28011 14.5214 7.26847 14.9534C6.81106 15.1489 6.327 15.2519 5.81142 15.2944V15.2948Z" fill="#AFB3BB"/>
</svg>
