<svg width="32" height="32" viewBox="0 0 32 32" fill="none" xmlns="http://www.w3.org/2000/svg">
<path d="M10.0869 18.8047C10.0278 18.8666 9.95758 18.9157 9.88033 18.9492C9.80309 18.9827 9.7203 19 9.63669 19C9.55307 19 9.47028 18.9827 9.39304 18.9492C9.31579 18.9157 9.2456 18.8666 9.18648 18.8047C9.12736 18.7427 9.08046 18.6692 9.04846 18.5883C9.01647 18.5074 9 18.4206 9 18.333C9 18.2454 9.01647 18.1587 9.04846 18.0778C9.08046 17.9969 9.12736 17.9234 9.18648 17.8614L15.5498 11.1955C15.6089 11.1335 15.6791 11.0844 15.7563 11.0508C15.8336 11.0173 15.9164 11 16 11C16.0836 11 16.1664 11.0173 16.2437 11.0508C16.3209 11.0844 16.3911 11.1335 16.4502 11.1955L22.8135 17.8614C22.9329 17.9865 23 18.1561 23 18.333C23 18.5099 22.9329 18.6796 22.8135 18.8047C22.6941 18.9297 22.5322 19 22.3633 19C22.1945 19 22.0325 18.9297 21.9131 18.8047L16 12.6095L10.0869 18.8047Z" fill="white"/>
</svg>
