<svg width="18" height="19" viewBox="0 0 18 19" fill="none" xmlns="http://www.w3.org/2000/svg">
<path d="M3.88342 15.6481C3.37226 16.4766 2.98408 17.3216 2.67706 18.1919C2.65536 18.2529 2.63608 18.3144 2.61438 18.3754C2.45042 18.8407 1.94329 19.0908 1.40963 18.9696C0.8607 18.8445 0.590657 18.4414 0.757023 17.9748C1.37346 16.2455 2.24467 14.6 3.38271 13.0428C4.92582 10.9301 6.86756 9.07633 9.20633 7.48163C9.27705 7.43338 9.34376 7.38133 9.38716 7.3115C5.60173 8.80336 2.82414 11.0716 0.941874 14.1042C0.748986 13.6586 0.516716 13.2212 0.368835 12.7666C-0.258051 10.8348 -0.119011 8.95 1.04234 7.15279C2.04937 5.59427 3.64874 4.51759 5.68773 3.89609C7.14243 3.45297 8.66785 3.15524 10.1611 2.79084C10.956 2.59658 11.7661 2.43216 12.5393 2.1941C13.8798 1.78145 14.9632 1.08822 15.8224 0.175959C15.8979 0.0953351 16.0579 -0.0163957 16.1334 0.00201445C16.2459 0.0293123 16.3577 0.148661 16.4011 0.247695C17.4828 2.68102 18.1226 5.17591 17.9803 7.76667C17.8582 9.99557 17.118 12.0632 15.2373 13.7957C13.8308 15.0908 12.1189 15.9992 9.93689 16.2677C8.31985 16.4671 6.73414 16.3261 5.17175 15.9706C4.749 15.8741 4.33188 15.7611 3.88181 15.6481H3.88342Z" fill="#AFB3BB"/>
</svg>
